PathFileType	4	(X/Y/Z)	/Users/itak/Documents/Research/Walk-IL/dataset/trc/00102_00007.trc
DataRate	CameraRate	NumFrames	NumMarkers	Units	OrigDataRate	OrigDataStartFrame	OrigNumFrames
100.000000	100.000000	4	53	mm	100.000000	494	565
Frame#	Time	RPSI			LPSI			L3			STRN			T10			C7			CLAV			RBAK			LBAK			LSHO			LUPA			LAEL			LAOL			LWTS			LWPS			LFRA			LIFD			LHPS			LHTS			RSHO			RUPA			RAEL			RAOL			RWTS			RWPS			RFRA			RIFD			RHTS			RHPS			RBHD			LFHD			RFHD			LBHD			LHIP			RHIP			RASI			LASI			LKNE			LTHI			LANK			LTIP			LTOE			LMT1			LMT5			LHEE			RKNE			RTHI			RANK			RTIP			RTOE			RMT1			RMT5			RHEE			
		X1	Y1	Z1	X2	Y2	Z2	X3	Y3	Z3	X4	Y4	Z4	X5	Y5	Z5	X6	Y6	Z6	X7	Y7	Z7	X8	Y8	Z8	X9	Y9	Z9	X10	Y10	Z10	X11	Y11	Z11	X12	Y12	Z12	X13	Y13	Z13	X14	Y14	Z14	X15	Y15	Z15	X16	Y16	Z16	X17	Y17	Z17	X18	Y18	Z18	X19	Y19	Z19	X20	Y20	Z20	X21	Y21	Z21	X22	Y22	Z22	X23	Y23	Z23	X24	Y24	Z24	X25	Y25	Z25	X26	Y26	Z26	X27	Y27	Z27	X28	Y28	Z28	X29	Y29	Z29	X30	Y30	Z30	X31	Y31	Z31	X32	Y32	Z32	X33	Y33	Z33	X34	Y34	Z34	X35	Y35	Z35	X36	Y36	Z36	X37	Y37	Z37	X38	Y38	Z38	X39	Y39	Z39	X40	Y40	Z40	X41	Y41	Z41	X42	Y42	Z42	X43	Y43	Z43	X44	Y44	Z44	X45	Y45	Z45	X46	Y46	Z46	X47	Y47	Z47	X48	Y48	Z48	X49	Y49	Z49	X50	Y50	Z50	X51	Y51	Z51	X52	Y52	Z52	X53	Y53	Z53	

495	4.94	415.6246337890625	1124.791015625	-251.1446075439453	416.8251037597656	1126.293090820312	-385.9862976074219	409.7605285644531	1158.234375	-320.5564575195312	618.7583618164062	1365.751098632812	-318.0505676269531	365.1682434082031	1305.477416992188	-322.3798217773438	390.9060363769531	1599.120971679688	-336.2123413085938	577.279296875	1499.13720703125	-322.037353515625	341.8978271484375	1412.043090820312	-250.0796356201172	386.3001403808594	1579.244384765625	-437.4799499511719	476.2607421875	1569.525268554688	-502.3507080078125	464.3799438476562	1437.445556640625	-572.89892578125	497.137939453125	1220.489013671875	-595.6007690429688	430.3212890625	1200.886352539062	-541.0363159179688	632.2025146484375	982.4625854492188	-550.5150756835938	555.37060546875	942.7750244140625	-577.3178100585938	527.7406005859375	1107.438354492188	-598.9616088867188	672.974853515625	792.7564697265625	-523.6785278320312	595.7808837890625	873.15380859375	-576.5665283203125	661.3472900390625	896.3430786132812	-560.0166625976562	441.6249084472656	1580.803344726562	-152.1669006347656	426.0326843261719	1506.409545898438	-89.6263427734375	425.4769287109375	1211.532348632812	-69.7857666015625	424.0607299804688	1210.521728515625	-166.2857360839844	579.692138671875	975.6102905273438	-78.81214141845703	505.828857421875	955.4567260742188	-50.1391487121582	451.8504028320312	1139.349243164062	-53.62713623046875	611.9847412109375	781.786376953125	-97.01289367675781	612.8538208007812	867.8268432617188	-73.93426513671875	546.1656494140625	857.4359741210938	-46.06600189208984	425.9302368164062	1772.936279296875	-254.1339874267578	583.229248046875	1843.931762695312	-391.4912109375	584.910400390625	1850.925659179688	-261.9169921875	414.1255187988281	1769.145751953125	-389.0918273925781	510.9396667480469	1040.382568359375	-491.8673095703125	543.323486328125	1030.666748046875	-133.1593780517578	622.654541015625	1106.428955078125	-184.4710388183594	618.2869873046875	1108.840698242188	-451.4736328125	539.343505859375	539.6236572265625	-458.5385437011719	517.3765258789062	684.184814453125	-488.0754089355469	431.1825561523438	34.1644172668457	-446.0653076171875	439.6837158203125	291.1496887207031	-483.830078125	659.8908081054688	37.51776504516602	-377.450927734375	577.2838134765625	43.71515274047852	-348.5701904296875	557.4930419921875	31.97940826416016	-466.2840576171875	360.0726928710938	37.12654876708984	-387.0066528320312	524.439453125	538.89208984375	-178.2925262451172	559.7979736328125	819.29052734375	-146.3024597167969	410.7935485839844	30.73790168762207	-206.3655548095703	493.8825073242188	406.2694396972656	-171.7145843505859	641.9934692382812	40.81249618530273	-268.3375244140625	578.5634765625	33.99428558349609	-306.4760131835938	544.4541015625	37.23771667480469	-187.83837890625	352.2056579589844	34.71590805053711	-252.4281616210938	
496	4.95	415.8580627441406	1124.839599609375	-251.787109375	417.3175048828125	1126.298095703125	-386.6136779785156	410.1077880859375	1158.251098632812	-321.2145080566406	619.1025390625	1365.695556640625	-318.4220275878906	365.6068420410156	1305.424194335938	-323.0773315429688	391.3295288085938	1599.0927734375	-336.8675231933594	577.6353759765625	1499.084594726562	-322.4669189453125	342.29833984375	1412.03564453125	-250.7466278076172	386.767578125	1579.165893554688	-438.1266784667969	476.7662048339844	1569.395874023438	-502.9323425292969	464.8656005859375	1437.284301757812	-573.39111328125	497.2947692871094	1220.227294921875	-595.9015502929688	430.4231567382812	1200.854858398438	-541.3326416015625	631.1693115234375	981.497802734375	-550.7128295898438	554.1359252929688	942.2319946289062	-577.5706787109375	527.4322509765625	1107.031860351562	-599.2105712890625	670.9048461914062	791.6168823242188	-523.8949584960938	594.1533203125	872.3890380859375	-576.7879028320312	659.8819580078125	895.2479248046875	-560.2713012695312	441.8157043457031	1580.80712890625	-152.7601165771484	426.1806030273438	1506.432006835938	-90.20857238769531	425.7783508300781	1211.539428710938	-70.23702239990234	424.3561706542969	1210.51708984375	-166.7638854980469	580.3790283203125	975.8577880859375	-79.05909729003906	506.4846496582031	955.5811157226562	-50.46268844604492	452.2080383300781	1139.39794921875	-54.04917144775391	613.0155029296875	782.1004638671875	-97.17682647705078	613.711181640625	868.1463623046875	-74.12495422363281	547.01123046875	857.6351318359375	-46.3145751953125	426.1827392578125	1772.882690429688	-254.7291717529297	583.6715698242188	1843.952514648438	-391.8359069824219	585.1743774414062	1850.89794921875	-262.2833251953125	414.5518493652344	1769.13232421875	-389.6942749023438	511.4602355957031	1040.310302734375	-492.3616027832031	543.2665405273438	1030.685668945312	-133.5992584228516	622.7559814453125	1106.399780273438	-184.7899169921875	618.8772583007812	1108.832885742188	-451.8648376464844	539.547607421875	539.5112915039062	-458.7055969238281	517.6624755859375	684.1079711914062	-488.3342590332031	431.1787109375	34.15362548828125	-446.0683288574219	439.7561645507812	291.1029663085938	-483.9423217773438	659.8750610351562	37.51268768310547	-377.4525146484375	577.2767944335938	43.71616744995117	-348.5572509765625	557.4884033203125	31.98467826843262	-466.2726745605469	360.0556945800781	37.1135139465332	-387.0152587890625	524.3978271484375	538.9180297851562	-178.4605560302734	560.087158203125	819.4876098632812	-146.7573394775391	410.7878723144531	30.72892951965332	-206.3570861816406	493.8433837890625	406.2909851074219	-171.8117370605469	641.9880981445312	40.82654190063477	-268.3325500488281	578.5587768554688	34.0035400390625	-306.4725952148438	544.4509887695312	37.23831939697266	-187.8357696533203	352.1950988769531	34.69876098632812	-252.4231872558594	
497	4.96	416.0979614257812	1124.888549804688	-252.4077301025391	417.7966613769531	1126.311645507812	-387.220703125	410.4532165527344	1158.27197265625	-321.8499755859375	619.4370727539062	1365.64501953125	-318.7890625	366.0413513183594	1305.367309570312	-323.7468566894531	391.7273559570312	1599.056518554688	-337.5018005371094	577.9766845703125	1499.03271484375	-322.8959350585938	342.6751708984375	1412.019897460938	-251.3977661132812	387.2146911621094	1579.083129882812	-438.7574157714844	477.2452087402344	1569.264892578125	-503.5044860839844	465.3229675292969	1437.120361328125	-573.8749389648438	497.3866271972656	1219.95849609375	-596.1876220703125	430.4821166992188	1200.827270507812	-541.6013793945312	630.0302734375	980.4974365234375	-550.9384155273438	552.7720947265625	941.6783447265625	-577.8300170898438	527.0524291992188	1106.617309570312	-599.4521484375	668.669677734375	790.4239501953125	-524.1575927734375	592.37353515625	871.6030883789062	-577.0278930664062	658.2724609375	894.10400390625	-560.5643310546875	441.9961242675781	1580.809692382812	-153.3409576416016	426.3324584960938	1506.450561523438	-90.77518463134766	426.1163940429688	1211.548706054688	-70.67018127441406	424.6990661621094	1210.5087890625	-167.2212066650391	581.0870361328125	976.09423828125	-79.27012634277344	507.1553039550781	955.7066040039062	-50.75039291381836	452.6048278808594	1139.451049804688	-54.44699478149414	614.040283203125	782.3989868164062	-97.28197479248047	614.5770263671875	868.45263671875	-74.26495361328125	547.8529663085938	857.8280029296875	-46.51984024047852	426.4282836914062	1772.83349609375	-255.3162994384766	584.0972900390625	1843.969848632812	-392.1761474609375	585.4412231445312	1850.866088867188	-262.6452026367188	414.9655151367188	1769.121948242188	-390.29150390625	511.9568786621094	1040.231689453125	-492.8401794433594	543.2269287109375	1030.702758789062	-134.0311889648438	622.8644409179688	1106.365600585938	-185.1082458496094	619.4619140625	1108.836181640625	-452.2607421875	539.7384033203125	539.401611328125	-458.878662109375	517.9411010742188	684.0330200195312	-488.578125	431.1727294921875	34.13902282714844	-446.0726623535156	439.8082580566406	291.049560546875	-484.03857421875	659.8583374023438	37.51149749755859	-377.4578247070312	577.2676391601562	43.71987533569336	-348.5479736328125	557.4834594726562	31.98854637145996	-466.2642517089844	360.0370788574219	37.09485626220703	-387.0248107910156	524.3599243164062	538.940673828125	-178.6243438720703	560.3485107421875	819.666259765625	-147.1777954101562	410.7806091308594	30.71445274353027	-206.3423767089844	493.8127136230469	406.3091430664062	-171.8966064453125	641.97802734375	40.8368034362793	-268.326416015625	578.552490234375	34.01506805419922	-306.4682922363281	544.4463500976562	37.23681640625	-187.8311157226562	352.1785888671875	34.67400741577148	-252.4148712158203	
498	4.97	416.3422546386719	1124.936767578125	-253.0059661865234	418.2594604492188	1126.33056640625	-387.8071594238281	410.7958374023438	1158.295043945312	-322.4624328613281	619.7586059570312	1365.597778320312	-319.1504821777344	366.4662475585938	1305.31103515625	-324.3897705078125	392.1008911132812	1599.0146484375	-338.1152954101562	578.30615234375	1498.983032226562	-323.325439453125	343.0265808105469	1411.9990234375	-252.0331878662109	387.6465759277344	1579.000122070312	-439.3724670410156	477.7058715820312	1569.138061523438	-504.0658264160156	465.7581787109375	1436.957275390625	-574.350341796875	497.4258117675781	1219.68896484375	-596.4614868164062	430.5080261230469	1200.80615234375	-541.8457641601562	628.7933349609375	979.465576171875	-551.18896484375	551.2899169921875	941.1194458007812	-578.095458984375	526.6094970703125	1106.201293945312	-599.6875610351562	666.2755126953125	789.18115234375	-524.4598388671875	590.4524536132812	870.8013305664062	-577.2871704101562	656.5236206054688	892.91552734375	-560.8884887695312	442.1701354980469	1580.812866210938	-153.90966796875	426.48876953125	1506.466796875	-91.32683563232422	426.4851684570312	1211.561767578125	-71.08710479736328	425.08642578125	1210.497802734375	-167.6596374511719	581.808349609375	976.32080078125	-79.44677734375	507.8355407714844	955.8343505859375	-51.00399398803711	453.0356750488281	1139.509033203125	-54.82198715209961	615.0559692382812	782.6830444335938	-97.33039093017578	615.4443969726562	868.7466430664062	-74.35602569580078	548.687255859375	858.0173950195312	-46.68391799926758	426.6689147949219	1772.788452148438	-255.8938446044922	584.5053100585938	1843.982788085938	-392.5141296386719	585.7093505859375	1850.831176757812	-263.0024719238281	415.3666381835938	1769.114379882812	-390.8819885253906	512.4257202148438	1040.145629882812	-493.302734375	543.208984375	1030.717895507812	-134.4542999267578	622.9796142578125	1106.327270507812	-185.4269714355469	620.0363159179688	1108.84912109375	-452.6594848632812	539.9226684570312	539.3005981445312	-459.0576477050781	518.2186279296875	683.9596557617188	-488.8082275390625	431.16552734375	34.12173843383789	-446.0779113769531	439.8467102050781	290.9900817871094	-484.1208190917969	659.841796875	37.51395416259766	-377.4658813476562	577.2572631835938	43.72586441040039	-348.5418090820312	557.4783935546875	31.99097633361816	-466.2586059570312	360.0189514160156	37.07222747802734	-387.03515625	524.3309936523438	538.9601440429688	-178.7857513427734	560.5687255859375	819.8186645507812	-147.5586395263672	410.7720642089844	30.6945686340332	-206.3210601806641	493.7944030761719	406.3240356445312	-171.9716796875	641.9631958007812	40.84389495849609	-268.3190612792969	578.545166015625	34.02944183349609	-306.4631042480469	544.4404296875	37.23337173461914	-187.8246154785156	352.156494140625	34.64281463623047	-252.4033050537109	
